<svg width="26" height="23" viewBox="0 0 26 23" fill="none" xmlns="http://www.w3.org/2000/svg">
<path d="M24.1232 5.92207H18.7136V4.72792C18.7136 2.21823 16.3469 0.176147 13.4378 0.176147C10.5287 0.176147 8.16196 2.21823 8.16196 4.72792V5.92211H2.75243L0.972168 22.7629H25.9034L24.1232 5.92207ZM9.20918 4.72792C9.20918 2.7163 11.106 1.07965 13.4377 1.07965C15.7695 1.07965 17.6663 2.7163 17.6663 4.72792V5.92211H9.20918V4.72792ZM18.19 9.92329C18.8956 9.92329 19.2835 10.1937 19.2835 10.2833C19.2835 10.3728 18.8957 10.6437 18.19 10.6437C17.4843 10.6437 17.0964 10.3728 17.0964 10.2833C17.0965 10.1937 17.4843 9.92329 18.19 9.92329ZM8.68557 9.92329C9.39122 9.92329 9.77911 10.1937 9.77911 10.2833C9.77911 10.3728 9.39127 10.6437 8.68557 10.6437C7.97987 10.6437 7.59203 10.3728 7.59203 10.2833C7.59208 10.1937 7.97992 9.92329 8.68557 9.92329ZM3.70866 6.82557H8.16196V9.05884C7.21296 9.19028 6.54481 9.67091 6.54481 10.2833C6.54481 11.0037 7.46525 11.5472 8.68557 11.5472C9.9059 11.5472 10.8263 11.0037 10.8263 10.2833C10.8263 9.67096 10.1582 9.19033 9.20918 9.05884V6.82557H17.6664V9.05884C16.7174 9.19028 16.0492 9.67091 16.0492 10.2833C16.0492 11.0037 16.9697 11.5472 18.19 11.5472C19.4103 11.5472 20.3307 11.0037 20.3307 10.2833C20.3307 9.67096 19.6626 9.19033 18.7136 9.05884V6.82557H23.1669L24.7564 21.8594H2.1191L3.70866 6.82557Z" fill="white"/>
</svg>
